<svg xmlns="http://www.w3.org/2000/svg" width="41" height="30" viewBox="0 0 41 30" fill="none">
  <path d="M16.6658 0.256592C21.4964 8.34555 31.5994 11.5643 40.219 7.76039C32.1589 11.8497 29.0063 21.7452 33.2154 29.7434C28.3848 21.6544 18.2818 18.4357 9.66223 22.2396C17.7223 18.1503 20.8749 8.25472 16.6658 0.256592Z" fill="url(#paint0_linear_120_3292)" fill-opacity="0.7"/>
  <path d="M3.55615 4.28741C5.47022 7.49254 9.47337 8.76791 12.8887 7.26068C9.69507 8.88101 8.44589 12.802 10.1137 15.9711C8.19963 12.766 4.19648 11.4906 0.781102 12.9978C3.97478 11.3775 5.22396 7.45655 3.55615 4.28741Z" fill="url(#paint1_linear_120_3292)" fill-opacity="0.5"/>
  <defs>
    <linearGradient id="paint0_linear_120_3292" x1="28.4424" y1="4.00849" x2="21.4388" y2="25.9915" gradientUnits="userSpaceOnUse">
      <stop stop-color="#F70FFF"/>
      <stop offset="1" stop-color="#FF7D61"/>
    </linearGradient>
    <linearGradient id="paint1_linear_120_3292" x1="8.22245" y1="5.77405" x2="5.4474" y2="14.4845" gradientUnits="userSpaceOnUse">
      <stop stop-color="#F70FFF"/>
      <stop offset="1" stop-color="#FF7D61"/>
    </linearGradient>
  </defs>
</svg>