<svg width="31" height="31" viewBox="0 0 31 31" fill="none" xmlns="http://www.w3.org/2000/svg">
<g filter="url(#filter0_b_119_2707)">
<g clip-path="url(#clip0_119_2707)">
<rect width="31" height="31" rx="15.5" fill="white" fill-opacity="0.28"/>
<path d="M6.30748 14.6731C8.4572 14.1357 10.1357 12.4572 10.6731 10.3075L11 9L11.3269 10.3075C11.8643 12.4572 13.5428 14.1357 15.6925 14.6731L17 15L15.6925 15.3269C13.5428 15.8643 11.8643 17.5428 11.3269 19.6925L11 21L10.6731 19.6925C10.1357 17.5428 8.4572 15.8643 6.30749 15.3269L5 15L6.30748 14.6731Z" fill="url(#paint0_linear_119_2707)"/>
<path d="M17 12.5C18.231 12.1922 19.1922 11.231 19.5 10C19.8078 11.231 20.769 12.1922 22 12.5C20.769 12.8078 19.8078 13.769 19.5 15C19.1922 13.769 18.231 12.8078 17 12.5Z" fill="url(#paint1_linear_119_2707)"/>
<path d="M17 20.5C18.1046 19.9961 18.9943 19.1038 19.5 18C20.0037 19.1082 20.8918 19.9963 22 20.5C20.8962 21.0057 20.0039 21.8954 19.5 23C18.9918 21.8949 18.1051 21.0082 17 20.5Z" fill="url(#paint2_linear_119_2707)" fill-opacity="0.5"/>
</g>
<rect x="0.5" y="0.5" width="30" height="30" rx="15" stroke="white" stroke-opacity="0.15"/>
</g>
<defs>
<filter id="filter0_b_119_2707" x="-4" y="-4" width="39" height="39" filterUnits="userSpaceOnUse" color-interpolation-filters="sRGB">
<feFlood flood-opacity="0" result="BackgroundImageFix"/>
<feGaussianBlur in="BackgroundImageFix" stdDeviation="2"/>
<feComposite in2="SourceAlpha" operator="in" result="effect1_backgroundBlur_119_2707"/>
<feBlend mode="normal" in="SourceGraphic" in2="effect1_backgroundBlur_119_2707" result="shape"/>
</filter>
<linearGradient id="paint0_linear_119_2707" x1="11" y1="9" x2="11" y2="21" gradientUnits="userSpaceOnUse">
<stop stop-color="#FF7043"/>
<stop offset="1" stop-color="#FFC4B2"/>
</linearGradient>
<linearGradient id="paint1_linear_119_2707" x1="19.5" y1="10" x2="19.5" y2="15" gradientUnits="userSpaceOnUse">
<stop stop-color="#FF7043"/>
<stop offset="1" stop-color="#FFC4B2"/>
</linearGradient>
<linearGradient id="paint2_linear_119_2707" x1="19.5" y1="18" x2="19.5" y2="23" gradientUnits="userSpaceOnUse">
<stop stop-color="#FF7043"/>
<stop offset="1" stop-color="#FFC4B2"/>
</linearGradient>
<clipPath id="clip0_119_2707">
<rect width="31" height="31" rx="15.5" fill="white"/>
</clipPath>
</defs>
</svg>
