<svg xmlns="http://www.w3.org/2000/svg" width="24" height="24" viewBox="0 0 24 24" fill="none">
  <path d="M13.6321 20.5597C12.8028 20.7133 11.752 20.8378 10.525 20.8378C9.29802 20.8378 8.2473 20.7133 7.41796 20.5597C6.52081 20.3936 6.07224 20.3105 5.69692 19.8373C5.32161 19.3643 5.32161 18.8073 5.32161 17.6934V10.9839C5.32161 10.4082 5.32161 10.1204 5.21175 9.86738C5.10189 9.61437 4.89558 9.42704 4.48296 9.05239L4.32804 8.91173C3.44491 8.10986 3.00334 7.70893 3.00002 7.12857C2.99669 6.54821 3.38834 6.18379 4.17163 5.45494C4.2902 5.34461 4.40767 5.24141 4.52108 5.14987C4.91522 4.83176 5.47229 4.4836 5.89866 4.23207C6.29763 3.99671 6.76634 3.94247 7.20937 4.0598L7.61914 4.16832C7.94364 4.25425 8.22625 4.46523 8.41179 4.76004C9.41709 6.35742 11.633 6.35742 12.6382 4.76004C12.8238 4.46523 13.1064 4.25425 13.4309 4.16832L13.8407 4.0598C14.2837 3.94247 14.7524 3.99671 15.1514 4.23207C15.5777 4.4836 16.1348 4.83176 16.529 5.14987C16.6424 5.24141 16.7598 5.34461 16.8784 5.45494C17.6617 6.18379 18.0534 6.54821 18.05 7.12857C18.0467 7.70893 17.6052 8.10986 16.722 8.91173L16.5671 9.05239C16.1545 9.42704 15.9481 9.61437 15.8383 9.86738C15.7284 10.1204 15.7284 10.4082 15.7284 10.9839" stroke="url(#paint0_linear_120_4404)" stroke-linecap="round"/>
  <path d="M17.1926 16.3793L17.2084 16.2869C17.2752 15.8601 17.2319 15.4297 17.0825 15.0364C16.6007 13.7624 15.224 13.2257 13.8822 13.7879C13.8096 13.8182 13.7348 13.8615 13.5526 13.9771C12.7982 14.4575 12.1482 14.6983 11.2854 14.6681C11.5523 15.7395 12.0315 16.8866 12.577 17.6225C12.9019 18.0595 13.3697 18.3698 13.908 18.5054C14.4464 18.641 15.0253 18.5944 15.5552 18.3727C15.9709 18.1988 16.3401 17.9238 16.627 17.5744C16.9139 17.225 17.1089 16.8135 17.1926 16.3793ZM17.9321 14.6033L20.7208 15.287C20.8293 15.3138 20.9219 15.3794 20.9812 15.4716C21.0404 15.5639 21.0624 15.6763 21.0429 15.7879L20.7035 17.7287C20.6838 17.8403 20.6241 17.9433 20.5354 18.0184C20.4468 18.0936 20.3353 18.1356 20.222 18.1368L17.3093 18.1647C16.9606 18.5792 16.5258 18.9152 16.0377 19.1473C15.5495 19.3794 15.0209 19.5016 14.4916 19.5046C13.9623 19.5076 13.4462 19.3914 12.9823 19.1647C12.5184 18.9381 12.1189 18.6069 11.8138 18.1961C10.8758 16.9301 10.2429 14.873 10.1451 13.5394C12.3558 14.1179 12.7961 13.2618 13.5621 12.9411C15.3521 12.1911 17.2459 12.8975 17.9321 14.6033ZM18.1301 16.3742C18.1234 16.4164 18.1158 16.4582 18.1081 16.5L17.9793 17.2362L19.8561 17.2186L20.0541 16.087L18.2576 15.6464L18.1301 16.3742Z" fill="url(#paint1_linear_120_4404)"/>
  <defs>
    <linearGradient id="paint0_linear_120_4404" x1="10.525" y1="4" x2="10.525" y2="20.8378" gradientUnits="userSpaceOnUse">
      <stop stop-color="#FD228C"/>
      <stop offset="1" stop-color="#7000FF"/>
    </linearGradient>
    <linearGradient id="paint1_linear_120_4404" x1="19.11" y1="12.9461" x2="11.8899" y2="18.2987" gradientUnits="userSpaceOnUse">
      <stop stop-color="#FD228C"/>
      <stop offset="1" stop-color="#7000FF"/>
    </linearGradient>
  </defs>
</svg>